<svg xmlns="http://www.w3.org/2000/svg" enable-background="new 0 0 48 48" viewBox="0 0 48 48"><path fill="#595bd4" d="M40,15.5c4.1,0,7.5-3.4,7.5-7.5S44.1,0.5,40,0.5S32.5,3.9,32.5,8c0,0.8,0.1,1.7,0.4,2.4l-18.7,9.4c-1.4-2-3.6-3.3-6.2-3.3
		c-4.1,0-7.5,3.4-7.5,7.5s3.4,7.5,7.5,7.5c2.6,0,4.8-1.3,6.2-3.3l18.7,9.4c-0.3,0.8-0.4,1.6-0.4,2.4c0,4.1,3.4,7.5,7.5,7.5
		s7.5-3.4,7.5-7.5s-3.4-7.5-7.5-7.5c-2.6,0-4.8,1.3-6.2,3.3l-18.7-9.4c0.3-0.8,0.4-1.6,0.4-2.4c0-0.8-0.1-1.7-0.4-2.4l18.7-9.4
		C35.2,14.2,37.4,15.5,40,15.5z M40,34.5c3,0,5.5,2.5,5.5,5.5c0,3-2.5,5.5-5.5,5.5c-3,0-5.5-2.5-5.5-5.5C34.5,37,37,34.5,40,34.5z
		 M8,29.5c-3,0-5.5-2.5-5.5-5.5c0-3,2.5-5.5,5.5-5.5s5.5,2.5,5.5,5.5C13.5,27,11,29.5,8,29.5z M40,2.5c3,0,5.5,2.5,5.5,5.5
		S43,13.5,40,13.5c-3,0-5.5-2.5-5.5-5.5S37,2.5,40,2.5z" class="color000000 svgShape"/></svg>